# xmcd
#
# Track frame offsets:
# 150
# 18508
# 37768
# 54233
# 83290
# 98663
# 110490
# 134713
# 153688
# 170120
# 187618
# 207235
#
# Disc length: 2960 seconds
#
#
# Revision: 5
# Processed by: cddbd v1.5.1PL2 Copyright (c) Steve Scherf et al.
# Submitted via: FreeRIP 2.11 
#
DISCID=900b8e0c
DTITLE=errat - En directo vol.2
DYEAR=1986
DGENRE=Folk
TTITLE0=Temps era temps
TTITLE1=Sinceramente tuyo
TTITLE2=Cambalache
TTITLE3=La Tieta
TTITLE4=El Titiritero
TTITLE5=La Saeta
TTITLE6=Cada loco con su tema
TTITLE7=Esos locos bajitos
TTITLE8=Fiesta
TTITLE9=Paraules d'amor
TTITLE10=Penelope
TTITLE11=Lucia
EXTD=YEAR: 1986
EXTT0=
EXTT1=
EXTT2=
EXTT3=
EXTT4=
EXTT5=
EXTT6=
EXTT7=
EXTT8=
EXTT9=
EXTT10=
EXTT11=
PLAYORDER=
